<svg width="30" height="30" viewBox="0 0 20 20" fill="  " xmlns="http://www.w3.org/2000/svg">
                 
<path fill-rule="evenodd" clip-rule="evenodd" d="M9.28597 1.75C8.90369 1.75 8.58258 2.03752 8.54052 2.41748L8.44723 3.2602C8.41514 3.55013 8.21785 3.79515 7.94144 3.88836C7.65875 3.98369 7.38999 4.09244 7.13572 4.21888C6.87459 4.34872 6.56187 4.31543 6.33394 4.13351L5.67045 3.60396C5.37201 3.36578 4.94226 3.38983 4.67227 3.65982L3.65982 4.67227C3.38982 4.94226 3.36578 5.37201 3.60396 5.67045L4.13351 6.33394C4.31543 6.56187 4.34872 6.87459 4.21888 7.13572C4.09244 7.38999 3.98368 7.65875 3.88836 7.94144C3.79515 8.21785 3.55013 8.41514 3.2602 8.44723L2.41748 8.54052C2.03752 8.58258 1.75 8.90369 1.75 9.28597V10.714C1.75 11.0963 2.03752 11.4174 2.41748 11.4595L3.2602 11.5528C3.55013 11.5849 3.79515 11.7822 3.88836 12.0586C3.98368 12.3412 4.09244 12.61 4.21888 12.8643C4.34872 13.1254 4.31543 13.4381 4.13351 13.6661L3.60397 14.3295C3.36578 14.628 3.38983 15.0577 3.65982 15.3277L4.67227 16.3402C4.94227 16.6102 5.37201 16.6342 5.67045 16.396L6.33394 15.8665C6.56188 15.6846 6.87461 15.6513 7.13575 15.7811C7.38999 15.9076 7.65874 16.0163 7.94141 16.1116C8.21783 16.2048 8.41513 16.4499 8.44723 16.7398L8.54052 17.5825C8.58258 17.9625 8.90369 18.25 9.28597 18.25H10.714C11.0963 18.25 11.4174 17.9625 11.4595 17.5825L11.5528 16.7398C11.5849 16.4499 11.7822 16.2048 12.0586 16.1116C12.3413 16.0163 12.61 15.9076 12.8643 15.7811C13.1254 15.6513 13.4381 15.6846 13.6661 15.8665L14.3295 16.396C14.628 16.6342 15.0577 16.6102 15.3277 16.3402L16.3402 15.3277C16.6102 15.0577 16.6342 14.628 16.396 14.3295L15.8665 13.6661C15.6846 13.4381 15.6513 13.1254 15.7811 12.8643C15.9076 12.61 16.0163 12.3412 16.1116 12.0586C16.2049 11.7822 16.4499 11.5849 16.7398 11.5528L17.5825 11.4595C17.9625 11.4174 18.25 11.0963 18.25 10.714V9.28597C18.25 8.90369 17.9625 8.58258 17.5825 8.54052L16.7398 8.44723C16.4499 8.41514 16.2048 8.21785 16.1116 7.94144C16.0163 7.65875 15.9076 7.38999 15.7811 7.13572C15.6513 6.87459 15.6846 6.56187 15.8665 6.33394L16.396 5.67045C16.6342 5.37201 16.6102 4.94226 16.3402 4.67227L15.3277 3.65982C15.0577 3.38982 14.628 3.36578 14.3296 3.60396L13.6661 4.13351C13.4381 4.31543 13.1254 4.34872 12.8643 4.21888C12.61 4.09244 12.3412 3.98368 12.0586 3.88836C11.7822 3.79515 11.5849 3.55013 11.5528 3.2602L11.4595 2.41748C11.4174 2.03752 11.0963 1.75 10.714 1.75H9.28597ZM7.04963 2.25243C7.17581 1.11256 8.13913 0.25 9.28597 0.25H10.714C11.8609 0.25 12.8242 1.11256 12.9504 2.25243L12.9927 2.63444C13.0251 2.64747 13.0575 2.66073 13.0899 2.67421L13.3939 2.43159C14.2892 1.71702 15.5784 1.78917 16.3884 2.59916L17.4008 3.61161C18.2108 4.4216 18.283 5.71084 17.5684 6.60615L17.3258 6.91014C17.3393 6.94248 17.3525 6.97488 17.3656 7.00734L17.7476 7.04963C18.8874 7.17581 19.75 8.13913 19.75 9.28597V10.714C19.75 11.8609 18.8874 12.8242 17.7476 12.9504L17.3656 12.9927C17.3525 13.0251 17.3393 13.0575 17.3258 13.0899L17.5684 13.3938C18.283 14.2891 18.2108 15.5784 17.4008 16.3884L16.3884 17.4008C15.5784 18.2108 14.2892 18.283 13.3939 17.5684L13.0899 17.3258C13.0575 17.3393 13.0251 17.3525 12.9927 17.3656L12.9504 17.7476C12.8242 18.8874 11.8609 19.75 10.714 19.75H9.28597C8.13913 19.75 7.17581 18.8874 7.04963 17.7476L7.00734 17.3656C6.97488 17.3525 6.94247 17.3393 6.91013 17.3258L6.60615 17.5684C5.71084 18.283 4.42159 18.2108 3.6116 17.4008L2.59916 16.3884C1.78917 15.5784 1.71703 14.2891 2.4316 13.3938L2.67421 13.0899C2.66073 13.0575 2.64747 13.0251 2.63444 12.9927L2.25243 12.9504C1.11256 12.8242 0.25 11.8609 0.25 10.714V9.28597C0.25 8.13913 1.11256 7.17581 2.25243 7.04963L2.63444 7.00734C2.64747 6.97488 2.66073 6.94248 2.67421 6.91014L2.43159 6.60615C1.71702 5.71084 1.78917 4.4216 2.59916 3.61161L3.61161 2.59916C4.4216 1.78917 5.71084 1.71703 6.60615 2.43159L6.91014 2.67421C6.94248 2.66073 6.97488 2.64747 7.00734 2.63444L7.04963 2.25243ZM10 7.75C8.75736 7.75 7.75 8.75734 7.75 10C7.75 11.2426 8.75736 12.25 10 12.25C11.2426 12.25 12.25 11.2426 12.25 10C12.25 8.75734 11.2426 7.75 10 7.75ZM6.25 10C6.25 7.92891 7.92893 6.25 10 6.25C12.0711 6.25 13.75 7.92891 13.75 10C13.75 12.0711 12.0711 13.75 10 13.75C7.92893 13.75 6.25 12.0711 6.25 10Z" fill="#DF1300"/>
</svg>
